<mxfile modified="2021-03-31T01:46:52.781Z" host="app.diagrams.net" agent="5.0 (Windows NT 10.0; Win64; x64) AppleWebKit/537.36 (KHTML, like Gecko) Chrome/89.0.4389.90 Safari/537.36" etag="USqjOpgw4K6ks-QseBy0" version="14.5.3" type="github">
  <diagram id="Ht1M8jgEwFfnCIfOTk4-" name="Page-1">
    <mxGraphModel dx="920" dy="552" grid="1" gridSize="10" guides="1" tooltips="1" connect="1" arrows="1" fold="1" page="1" pageScale="1" pageWidth="1169" pageHeight="827" math="0" shadow="0">
      <root>
        <mxCell id="0" />
        <mxCell id="1" parent="0" />
        <mxCell id="UEzPUAAOIrF-is8g5C7q-74" value="AWS Cloud" style="points=[[0,0],[0.25,0],[0.5,0],[0.75,0],[1,0],[1,0.25],[1,0.5],[1,0.75],[1,1],[0.75,1],[0.5,1],[0.25,1],[0,1],[0,0.75],[0,0.5],[0,0.25]];outlineConnect=0;gradientColor=none;html=1;whiteSpace=wrap;fontSize=12;fontStyle=0;shape=mxgraph.aws4.group;grIcon=mxgraph.aws4.group_aws_cloud_alt;strokeColor=#232F3E;fillColor=none;verticalAlign=top;align=left;spacingLeft=30;fontColor=#232F3E;dashed=0;labelBackgroundColor=#ffffff;" parent="1" vertex="1">
          <mxGeometry x="122" y="101" width="678" height="599" as="geometry" />
        </mxCell>
        <mxCell id="UEzPUAAOIrF-is8g5C7q-107" value="" style="rounded=0;whiteSpace=wrap;html=1;labelBackgroundColor=none;fillColor=none;dashed=1;" parent="1" vertex="1">
          <mxGeometry x="510" y="325" width="260" height="360" as="geometry" />
        </mxCell>
        <mxCell id="UEzPUAAOIrF-is8g5C7q-89" value="" style="edgeStyle=orthogonalEdgeStyle;rounded=0;orthogonalLoop=1;jettySize=auto;html=1;endArrow=open;endFill=0;strokeWidth=2;entryX=0;entryY=0.5;entryDx=0;entryDy=0;entryPerimeter=0;" parent="1" source="3ymZBdOZzDmkiRR_eOnG-1" target="3ymZBdOZzDmkiRR_eOnG-8" edge="1">
          <mxGeometry relative="1" as="geometry">
            <Array as="points">
              <mxPoint x="90" y="375" />
              <mxPoint x="90" y="375" />
            </Array>
            <mxPoint x="370" y="350" as="targetPoint" />
          </mxGeometry>
        </mxCell>
        <mxCell id="UEzPUAAOIrF-is8g5C7q-106" style="edgeStyle=orthogonalEdgeStyle;rounded=0;orthogonalLoop=1;jettySize=auto;html=1;endArrow=open;endFill=0;strokeWidth=2;exitX=1;exitY=0.5;exitDx=0;exitDy=0;exitPerimeter=0;entryX=0;entryY=0.5;entryDx=0;entryDy=0;entryPerimeter=0;" parent="1" source="3ymZBdOZzDmkiRR_eOnG-8" target="3ymZBdOZzDmkiRR_eOnG-10" edge="1">
          <mxGeometry relative="1" as="geometry">
            <mxPoint x="285" y="179.0000000000001" as="sourcePoint" />
            <mxPoint x="1020" y="178.9999999999999" as="targetPoint" />
            <Array as="points">
              <mxPoint x="490" y="375" />
              <mxPoint x="490" y="191" />
            </Array>
          </mxGeometry>
        </mxCell>
        <mxCell id="UEzPUAAOIrF-is8g5C7q-104" style="edgeStyle=orthogonalEdgeStyle;rounded=0;orthogonalLoop=1;jettySize=auto;html=1;endArrow=open;endFill=0;strokeWidth=2;exitX=0;exitY=0.5;exitDx=0;exitDy=0;exitPerimeter=0;" parent="1" source="3ymZBdOZzDmkiRR_eOnG-18" target="3ymZBdOZzDmkiRR_eOnG-6" edge="1">
          <mxGeometry relative="1" as="geometry">
            <mxPoint x="1057.5" y="217.92511400912065" as="sourcePoint" />
            <mxPoint x="1057.5" y="310" as="targetPoint" />
            <Array as="points">
              <mxPoint x="640" y="375" />
            </Array>
          </mxGeometry>
        </mxCell>
        <mxCell id="UEzPUAAOIrF-is8g5C7q-91" value="" style="edgeStyle=orthogonalEdgeStyle;rounded=0;orthogonalLoop=1;jettySize=auto;html=1;endArrow=open;endFill=0;strokeWidth=2;" parent="1" edge="1">
          <mxGeometry relative="1" as="geometry">
            <mxPoint x="558" y="349" as="sourcePoint" />
            <mxPoint x="600" y="349" as="targetPoint" />
          </mxGeometry>
        </mxCell>
        <mxCell id="UEzPUAAOIrF-is8g5C7q-105" value="" style="edgeStyle=orthogonalEdgeStyle;rounded=0;orthogonalLoop=1;jettySize=auto;html=1;endArrow=open;endFill=0;strokeWidth=2;exitX=1;exitY=0.5;exitDx=0;exitDy=0;exitPerimeter=0;entryX=0;entryY=0.5;entryDx=0;entryDy=0;entryPerimeter=0;" parent="1" source="3ymZBdOZzDmkiRR_eOnG-8" target="3ymZBdOZzDmkiRR_eOnG-3" edge="1">
          <mxGeometry x="0.1208" y="-10" relative="1" as="geometry">
            <Array as="points">
              <mxPoint x="490" y="375" />
              <mxPoint x="490" y="551" />
            </Array>
            <mxPoint as="offset" />
            <mxPoint x="919" y="310" as="sourcePoint" />
            <mxPoint x="590" y="560" as="targetPoint" />
          </mxGeometry>
        </mxCell>
        <mxCell id="UEzPUAAOIrF-is8g5C7q-101" value="" style="edgeStyle=orthogonalEdgeStyle;rounded=0;orthogonalLoop=1;jettySize=auto;html=1;endArrow=open;endFill=0;strokeWidth=2;exitX=0;exitY=0.5;exitDx=0;exitDy=0;exitPerimeter=0;entryX=1;entryY=0.5;entryDx=0;entryDy=0;" parent="1" source="3ymZBdOZzDmkiRR_eOnG-18" target="3ymZBdOZzDmkiRR_eOnG-17" edge="1">
          <mxGeometry relative="1" as="geometry">
            <mxPoint x="1018.5" y="349" as="sourcePoint" />
            <mxPoint x="958" y="349" as="targetPoint" />
            <Array as="points" />
          </mxGeometry>
        </mxCell>
        <mxCell id="3ymZBdOZzDmkiRR_eOnG-1" value="" style="outlineConnect=0;fontColor=#232F3E;gradientColor=none;fillColor=#232F3E;strokeColor=none;dashed=0;verticalLabelPosition=bottom;verticalAlign=top;align=center;html=1;fontSize=12;fontStyle=0;aspect=fixed;pointerEvents=1;shape=mxgraph.aws4.client;" vertex="1" parent="1">
          <mxGeometry x="12" y="338" width="78" height="76" as="geometry" />
        </mxCell>
        <mxCell id="3ymZBdOZzDmkiRR_eOnG-2" value="" style="outlineConnect=0;fontColor=#232F3E;gradientColor=none;fillColor=#D86613;strokeColor=none;dashed=0;verticalLabelPosition=bottom;verticalAlign=top;align=center;html=1;fontSize=12;fontStyle=0;aspect=fixed;pointerEvents=1;shape=mxgraph.aws4.t3a_instance;" vertex="1" parent="1">
          <mxGeometry x="590" y="614" width="50" height="50" as="geometry" />
        </mxCell>
        <mxCell id="3ymZBdOZzDmkiRR_eOnG-6" value="" style="outlineConnect=0;fontColor=#232F3E;gradientColor=none;fillColor=#3334B9;strokeColor=none;dashed=0;verticalLabelPosition=bottom;verticalAlign=top;align=center;html=1;fontSize=12;fontStyle=0;aspect=fixed;pointerEvents=1;shape=mxgraph.aws4.rds_mariadb_instance;direction=east;" vertex="1" parent="1">
          <mxGeometry x="670" y="339" width="78" height="78" as="geometry" />
        </mxCell>
        <mxCell id="3ymZBdOZzDmkiRR_eOnG-8" value="" style="points=[[0,0,0],[0.25,0,0],[0.5,0,0],[0.75,0,0],[1,0,0],[0,1,0],[0.25,1,0],[0.5,1,0],[0.75,1,0],[1,1,0],[0,0.25,0],[0,0.5,0],[0,0.75,0],[1,0.25,0],[1,0.5,0],[1,0.75,0]];outlineConnect=0;fontColor=#232F3E;gradientColor=#945DF2;gradientDirection=north;fillColor=#5A30B5;strokeColor=#ffffff;dashed=0;verticalLabelPosition=bottom;verticalAlign=top;align=center;html=1;fontSize=12;fontStyle=0;aspect=fixed;shape=mxgraph.aws4.resourceIcon;resIcon=mxgraph.aws4.cloudfront;" vertex="1" parent="1">
          <mxGeometry x="390" y="336" width="78" height="78" as="geometry" />
        </mxCell>
        <mxCell id="3ymZBdOZzDmkiRR_eOnG-9" value="" style="points=[[0,0,0],[0.25,0,0],[0.5,0,0],[0.75,0,0],[1,0,0],[0,1,0],[0.25,1,0],[0.5,1,0],[0.75,1,0],[1,1,0],[0,0.25,0],[0,0.5,0],[0,0.75,0],[1,0.25,0],[1,0.5,0],[1,0.75,0]];outlineConnect=0;fontColor=#232F3E;gradientColor=#60A337;gradientDirection=north;fillColor=#277116;strokeColor=#ffffff;dashed=0;verticalLabelPosition=bottom;verticalAlign=top;align=center;html=1;fontSize=12;fontStyle=0;aspect=fixed;shape=mxgraph.aws4.resourceIcon;resIcon=mxgraph.aws4.elastic_block_store;" vertex="1" parent="1">
          <mxGeometry x="640" y="613" width="50" height="50" as="geometry" />
        </mxCell>
        <mxCell id="3ymZBdOZzDmkiRR_eOnG-10" value="" style="points=[[0,0,0],[0.25,0,0],[0.5,0,0],[0.75,0,0],[1,0,0],[0,1,0],[0.25,1,0],[0.5,1,0],[0.75,1,0],[1,1,0],[0,0.25,0],[0,0.5,0],[0,0.75,0],[1,0.25,0],[1,0.5,0],[1,0.75,0]];outlineConnect=0;fontColor=#232F3E;gradientColor=#60A337;gradientDirection=north;fillColor=#277116;strokeColor=#ffffff;dashed=0;verticalLabelPosition=bottom;verticalAlign=top;align=center;fontSize=12;fontStyle=0;aspect=fixed;shape=mxgraph.aws4.resourceIcon;resIcon=mxgraph.aws4.s3;html=1;" vertex="1" parent="1">
          <mxGeometry x="541" y="152" width="78" height="78" as="geometry" />
        </mxCell>
        <mxCell id="3ymZBdOZzDmkiRR_eOnG-11" value="S3" style="text;html=1;strokeColor=none;fillColor=none;align=center;verticalAlign=middle;whiteSpace=wrap;rounded=0;" vertex="1" parent="1">
          <mxGeometry x="560" y="230" width="40" height="20" as="geometry" />
        </mxCell>
        <mxCell id="3ymZBdOZzDmkiRR_eOnG-7" value="" style="points=[[0,0,0],[0.25,0,0],[0.5,0,0],[0.75,0,0],[1,0,0],[0,1,0],[0.25,1,0],[0.5,1,0],[0.75,1,0],[1,1,0],[0,0.25,0],[0,0.5,0],[0,0.75,0],[1,0.25,0],[1,0.5,0],[1,0.75,0]];outlineConnect=0;fontColor=#232F3E;gradientColor=#945DF2;gradientDirection=north;fillColor=#5A30B5;strokeColor=#ffffff;dashed=0;verticalLabelPosition=bottom;verticalAlign=top;align=center;html=1;fontSize=12;fontStyle=0;aspect=fixed;shape=mxgraph.aws4.resourceIcon;resIcon=mxgraph.aws4.route_53;" vertex="1" parent="1">
          <mxGeometry x="200" y="270" width="78" height="78" as="geometry" />
        </mxCell>
        <mxCell id="3ymZBdOZzDmkiRR_eOnG-14" style="edgeStyle=orthogonalEdgeStyle;rounded=0;orthogonalLoop=1;jettySize=auto;html=1;endArrow=open;endFill=0;strokeWidth=2;startArrow=open;startFill=0;" edge="1" parent="1" target="3ymZBdOZzDmkiRR_eOnG-3">
          <mxGeometry relative="1" as="geometry">
            <Array as="points">
              <mxPoint x="638" y="560" />
            </Array>
            <mxPoint x="638" y="527.9999999999998" as="sourcePoint" />
            <mxPoint x="528" y="590" as="targetPoint" />
          </mxGeometry>
        </mxCell>
        <mxCell id="3ymZBdOZzDmkiRR_eOnG-3" value="" style="points=[[0,0,0],[0.25,0,0],[0.5,0,0],[0.75,0,0],[1,0,0],[0,1,0],[0.25,1,0],[0.5,1,0],[0.75,1,0],[1,1,0],[0,0.25,0],[0,0.5,0],[0,0.75,0],[1,0.25,0],[1,0.5,0],[1,0.75,0]];outlineConnect=0;fontColor=#232F3E;gradientColor=#F78E04;gradientDirection=north;fillColor=#D05C17;strokeColor=#ffffff;dashed=0;verticalLabelPosition=bottom;verticalAlign=top;align=center;html=1;fontSize=12;fontStyle=0;aspect=fixed;shape=mxgraph.aws4.resourceIcon;resIcon=mxgraph.aws4.ec2;" vertex="1" parent="1">
          <mxGeometry x="600" y="512" width="78" height="78" as="geometry" />
        </mxCell>
        <mxCell id="3ymZBdOZzDmkiRR_eOnG-17" value="Wordpress" style="rounded=1;whiteSpace=wrap;html=1;" vertex="1" parent="1">
          <mxGeometry x="530" y="339" width="80" height="75" as="geometry" />
        </mxCell>
        <mxCell id="3ymZBdOZzDmkiRR_eOnG-18" value="Docker-&lt;br&gt;compose" style="shape=or;whiteSpace=wrap;html=1;direction=south;" vertex="1" parent="1">
          <mxGeometry x="600" y="430" width="80" height="60" as="geometry" />
        </mxCell>
        <mxCell id="3ymZBdOZzDmkiRR_eOnG-19" value="" style="endArrow=classic;html=1;exitX=0.5;exitY=0;exitDx=0;exitDy=0;exitPerimeter=0;entryX=1;entryY=0.5;entryDx=0;entryDy=0;entryPerimeter=0;" edge="1" parent="1" source="3ymZBdOZzDmkiRR_eOnG-3" target="3ymZBdOZzDmkiRR_eOnG-18">
          <mxGeometry width="50" height="50" relative="1" as="geometry">
            <mxPoint x="400" y="440" as="sourcePoint" />
            <mxPoint x="450" y="390" as="targetPoint" />
          </mxGeometry>
        </mxCell>
        <mxCell id="3ymZBdOZzDmkiRR_eOnG-20" value="クライアント" style="text;html=1;strokeColor=none;fillColor=none;align=center;verticalAlign=middle;whiteSpace=wrap;rounded=0;" vertex="1" parent="1">
          <mxGeometry x="10" y="414" width="90" height="20" as="geometry" />
        </mxCell>
        <mxCell id="3ymZBdOZzDmkiRR_eOnG-21" value="DOMAIN.com&lt;br&gt;www.DOMAIN.com&lt;br&gt;cdn.DOMAIN.com" style="text;html=1;strokeColor=none;fillColor=none;align=center;verticalAlign=middle;whiteSpace=wrap;rounded=0;" vertex="1" parent="1">
          <mxGeometry x="179" y="367.5" width="120" height="66" as="geometry" />
        </mxCell>
        <mxCell id="3ymZBdOZzDmkiRR_eOnG-22" value="Https" style="text;html=1;strokeColor=none;fillColor=none;align=center;verticalAlign=middle;whiteSpace=wrap;rounded=0;" vertex="1" parent="1">
          <mxGeometry x="130" y="380" width="40" height="20" as="geometry" />
        </mxCell>
        <mxCell id="3ymZBdOZzDmkiRR_eOnG-23" value="Http" style="text;html=1;strokeColor=none;fillColor=none;align=center;verticalAlign=middle;whiteSpace=wrap;rounded=0;" vertex="1" parent="1">
          <mxGeometry x="450" y="470" width="40" height="20" as="geometry" />
        </mxCell>
        <mxCell id="3ymZBdOZzDmkiRR_eOnG-24" value="Route 53" style="text;html=1;strokeColor=none;fillColor=none;align=center;verticalAlign=middle;whiteSpace=wrap;rounded=0;" vertex="1" parent="1">
          <mxGeometry x="200" y="347.5" width="80" height="20" as="geometry" />
        </mxCell>
        <mxCell id="3ymZBdOZzDmkiRR_eOnG-25" value="Cloud Front" style="text;html=1;strokeColor=none;fillColor=none;align=center;verticalAlign=middle;whiteSpace=wrap;rounded=0;" vertex="1" parent="1">
          <mxGeometry x="390" y="414" width="80" height="20" as="geometry" />
        </mxCell>
        <mxCell id="3ymZBdOZzDmkiRR_eOnG-26" value="EC2" style="text;html=1;strokeColor=none;fillColor=none;align=center;verticalAlign=middle;whiteSpace=wrap;rounded=0;" vertex="1" parent="1">
          <mxGeometry x="620" y="590" width="40" height="20" as="geometry" />
        </mxCell>
        <mxCell id="3ymZBdOZzDmkiRR_eOnG-27" value="EBS" style="text;html=1;strokeColor=none;fillColor=none;align=center;verticalAlign=middle;whiteSpace=wrap;rounded=0;" vertex="1" parent="1">
          <mxGeometry x="645" y="663" width="40" height="20" as="geometry" />
        </mxCell>
      </root>
    </mxGraphModel>
  </diagram>
</mxfile>
